# xmcd CD database file
# Copyright (C) 1997 Ti Kan
# 
# Track frame offsets:
#     215
#     10050
#     19207
#     30930
#     39635
#     52435
#     64072
#     75245
#     87947
#     96727
#     104925
#     117620
#     127305
#     137172
# 
# Disc length: 1988 seconds
# 
# Revision: 1
# Processed by: cddbd v1.4b41PL1 Copyright (c) Steve Scherf et al.
# Submitted via: DiscPlay 4.0.3
# 
DISCID=cd07c20e
DTITLE=Buck Owens and His Buckaroos - I Don't Care
DYEAR=1900
DGENRE=
TTITLE0=I Don't Care (Just As Long As You Love Me)
TTITLE1=Dang Me
TTITLE2=Don't Let Her Know
TTITLE3=Buck's Polka
TTITLE4=Understand Your Man
TTITLE5=Loose Talk
TTITLE6=You're Welcome Anytime
TTITLE7=Abilene
TTITLE8=Playboy
TTITLE9=Bud's Bounce
TTITLE10=Louisiana Man
TTITLE11=This Ol' Heart
TTITLE12=I Don't Care (Instrumental Version)
TTITLE13=Don't Let Her Know (Instrumental Version)
EXTD=
EXTT0=
EXTT1=
EXTT2=
EXTT3=
EXTT4=
EXTT5=
EXTT6=
EXTT7=
EXTT8=
EXTT9=
EXTT10=
EXTT11=
EXTT12=
EXTT13=
PLAYORDER=
